<?xml version="1.0" encoding="UTF-8" standalone="no"?>
<!-- Created with Inkscape (http://www.inkscape.org/) -->

<svg
   version="1.1"
   id="svg1"
   width="493.33334"
   height="493.33334"
   viewBox="0 0 493.33334 493.33334"
   sodipodi:docname="logo.svg"
   inkscape:version="1.3.2 (091e20e, 2023-11-25, custom)"
   xmlns:inkscape="http://www.inkscape.org/namespaces/inkscape"
   xmlns:sodipodi="http://sodipodi.sourceforge.net/DTD/sodipodi-0.dtd"
   xmlns="http://www.w3.org/2000/svg"
   xmlns:svg="http://www.w3.org/2000/svg">
  <defs
     id="defs1" />
  <sodipodi:namedview
     id="namedview1"
     pagecolor="#505050"
     bordercolor="#ffffff"
     borderopacity="1"
     inkscape:showpageshadow="0"
     inkscape:pageopacity="0"
     inkscape:pagecheckerboard="1"
     inkscape:deskcolor="#505050"
     inkscape:zoom="1.4142136"
     inkscape:cx="174.65537"
     inkscape:cy="254.20489"
     inkscape:window-width="1920"
     inkscape:window-height="1009"
     inkscape:window-x="1072"
     inkscape:window-y="239"
     inkscape:window-maximized="1"
     inkscape:current-layer="svg1" />
  <path
     id="path8"
     style="opacity:1;fill:#0064a2;fill-opacity:1;stroke:none;stroke-linecap:round;stroke-linejoin:round;stroke-opacity:1"
     d="m 121.09204,314.66252 c 0,0 -0.88389,69.82679 -0.88389,80.25662 0,10.42982 -4.24264,13.25825 -4.24264,13.25825 L 73.627493,450.51541 H 64.16994 l 48.65779,-48.65779 c 0,0 4.37522,-3.40295 4.19844,-8.52947 -0.17677,-5.12653 0,-75.83721 0,-75.83721 z M 395.125,303.1875 A 16.6875,16.6875 0 0 1 378.4375,319.875 16.6875,16.6875 0 0 1 361.75,303.1875 16.6875,16.6875 0 0 1 378.4375,286.5 16.6875,16.6875 0 0 1 395.125,303.1875 Z m -103.875,86.5 A 16.8125,16.8125 0 0 1 274.4375,406.5 16.8125,16.8125 0 0 1 257.625,389.6875 16.8125,16.8125 0 0 1 274.4375,372.875 16.8125,16.8125 0 0 1 291.25,389.6875 Z m -88.5,-58.0625 a 17,17 0 0 1 -17,17 17,17 0 0 1 -17,-17 17,17 0 0 1 17,-17 17,17 0 0 1 17,17 z m -81.48118,-54.26236 a 17.147339,17.147339 0 0 1 -17.14734,17.14734 17.147339,17.147339 0 0 1 -17.147336,-17.14734 17.147339,17.147339 0 0 1 17.147336,-17.14734 17.147339,17.147339 0 0 1 17.14734,17.14734 z M 489.2547,133.44285 322.18296,5.8998046 V 40.789103 c 0,0 -258.143263,0.02682 -280.66979,0 -22.526526,-0.02682 -35.1842887,18.101673 -35.0770196,30.330359 0.1072692,12.228686 0,318.482178 0,366.431498 0,47.94932 16.7339916,48.16386 38.2950946,48.16386 H 436.14187 c 30.64371,0 42.93153,-30.61026 42.93153,-44.11169 V 178.21136 l -34.32533,25.76685 v 235.26768 c 0,7.68979 -5.19282,10.96016 -10.00998,11.00435 -4.81717,0.0442 -43.35449,0 -43.35449,0 V 340.82547 c 0,0 24.6164,-12.70047 23.4914,-37.57547 -1.125,-24.875 -20.5,-37.125 -36.5,-37.125 -16,0 -38.5,9.375 -38.5,36.375 0,27 25.875,38 25.875,38 V 449.625 H 200.8125 v -77.25 c 0,0 23.1875,-12.875 23.6875,-44.875 0.5,-32 -32.52051,-61.45107 -32.52051,-61.45107 0,0 -13.43503,-11.13694 -20.85965,-25.45585 -7.42462,-14.31891 -14.82741,-32.92459 -12.02082,-36.416 0.0849,-0.10564 26.14519,17.1547 28.99138,22.98097 4.86122,9.95112 8.48528,27.93072 18.03123,28.1075 9.54594,0.17677 21.2132,-3.71231 21.2132,-7.77818 V 98.818172 h -27.22361 v 41.365748 l -5.25911,7.04897 c 0,0 -45.47711,-46.35789 -79.10211,-45.48289 C 82.125,102.625 75,146.125 75,146.125 v 108.25666 c 0,0 -8.531963,12.1976 -8.531963,23.5113 0,11.31371 5.480078,24.92552 12.197592,30.22882 6.717515,5.3033 12.020815,8.48528 12.020815,8.48528 L 90.509667,388.00368 42.728945,435.7844 42.905722,86.125 C 42.908503,80.625001 44.75,79.25 48.25,79.25 h 276.13524 l 20.30229,20.302299 H 246.07316 V 170.375 h 97.93429 c 0,0 -63.63961,52.01008 -73.89266,60.84892 -10.25305,8.83883 -14.84924,27.93071 -14.84924,27.93071 v 95.28287 c 0,0 -18.76555,11.3125 -18.76555,34.5625 0,23.25 21.5,39.5 37.25,39.25 15.75,-0.25 39.64469,-13.23788 39.75,-36 0.13388,-28.93718 -19.52383,-37.67417 -22.75,-39 -0.65403,-0.26878 0,-89.85272 0,-89.85272 0,0 -0.30589,-2.47488 0.75477,-4.06587 1.06066,-1.59099 18.03122,-18.38478 25.98617,-23.86485 7.95496,-5.48008 4.41942,-2.12132 4.41942,-2.12132 v 27.75394 z" />
</svg>
